<svg xmlns="http://www.w3.org/2000/svg" xmlns:xlink="http://www.w3.org/1999/xlink" x="0" y="0" width="702" height="302" style="
        width:702px;
        height:302px;
        background: transparent;
        fill: none;
">
        
        
        <svg xmlns="http://www.w3.org/2000/svg" class="role-diagram-draw-area" style="overflow: visible;"><g class="shapes-region" style="stroke: black; fill: none;"><g class="composite-shape" data-amt="diagram/shapes/plot" transform="matrix(1,0,0,1,141.91666666666666,32.083333333333364)"><g><g/><g><g class="test-plot-expression"><defs><clipPath id="cp4r831m575dg-full-view"><rect x="1" y="1" width="411.7500000000001" height="218.24999999999997"/></clipPath></defs><g clip-path="url(#cp4r831m575dg-full-view)"><path d=" M27.58,117.61 L27.52,117.25 L27.38,116.25 L27.25,115.25 L27.15,114.25 L27.07,113.25 L27.02,112.25 L26.98,111.25 L26.97,110.25 L26.98,109.25 L27.01,108.25 L27.06,107.25 L27.14,106.25 L27.24,105.25 L27.36,104.25 L27.50,103.25 L27.58,102.77 L27.67,102.25 L27.86,101.25 L28.07,100.25 L28.30,99.25 L28.56,98.25 L28.84,97.25 L28.96,96.83 L29.14,96.25 L29.47,95.25 L29.81,94.25 L30.18,93.25 L30.34,92.85 L30.58,92.25 L31.00,91.25 L31.44,90.25 L31.72,89.65 L31.91,89.25 L32.40,88.25 L32.91,87.25 L33.10,86.90 L33.45,86.25 L34.02,85.25 L34.48,84.46 L34.60,84.25 L35.22,83.25 L35.86,82.25 L35.86,82.25 L36.53,81.25 L37.22,80.25 L37.24,80.22 L37.94,79.25 L38.62,78.34 L38.68,78.25 L39.46,77.25 L40.00,76.57 L40.26,76.25 L41.08,75.25 L41.38,74.91 L41.94,74.25 L42.75,73.33 L42.83,73.25 L43.74,72.25 L44.13,71.83 L44.69,71.25 L45.51,70.40 L45.66,70.25 L46.67,69.25 L46.89,69.03 L47.70,68.25 L48.27,67.72 L48.77,67.25 L49.65,66.45 L49.88,66.25 L51.01,65.25 L51.03,65.23 L52.18,64.25 L52.41,64.06 L53.39,63.25 L53.79,62.92 L54.63,62.25 L55.17,61.82 L55.90,61.25 L56.55,60.76 L57.22,60.25 L57.93,59.73 L58.57,59.25 L59.30,58.72 L59.96,58.25 L60.68,57.75 L61.40,57.25 L62.06,56.80 L62.87,56.25 L63.44,55.87 L64.39,55.25 L64.82,54.97 L65.96,54.25 L66.20,54.10 L67.57,53.25 L67.58,53.24 L68.96,52.41 L69.23,52.25 L70.34,51.60 L70.93,51.25 L71.72,50.80 L72.69,50.25 L73.10,50.03 L74.48,49.27 L74.50,49.25 L75.85,48.53 L76.37,48.25 L77.23,47.80 L78.30,47.25 L78.61,47.09 L79.99,46.40 L80.29,46.25 L81.37,45.72 L82.34,45.25 L82.75,45.05 L84.13,44.40 L84.46,44.25 L85.51,43.77 L86.64,43.25 L86.89,43.14 L88.27,42.53 L88.91,42.25 L89.65,41.93 L91.03,41.34 L91.25,41.25 L92.40,40.77 L93.68,40.25 L93.78,40.21 L95.16,39.66 L96.19,39.25 L96.54,39.11 L97.92,38.58 L98.80,38.25 L99.30,38.06 L100.68,37.55 L101.51,37.25 L102.06,37.05 L103.44,36.57 L104.34,36.25 L104.82,36.08 L106.20,35.61 L107.28,35.25 L107.58,35.15 L108.95,34.70 L110.33,34.26 L110.35,34.25 L111.71,33.82 L113.09,33.40 L113.57,33.25 L114.47,32.98 L115.85,32.57 L116.95,32.25 L117.23,32.17 L118.61,31.78 L119.99,31.39 L120.51,31.25 L121.37,31.02 L122.75,30.65 L124.13,30.29 L124.26,30.25 L125.50,29.93 L126.88,29.59 L128.25,29.25 L128.26,29.25 L129.64,28.92 L131.02,28.59 L132.40,28.27 L132.50,28.25 L133.78,27.96 L135.16,27.66 L136.54,27.36 L137.07,27.25 L137.92,27.07 L139.30,26.79 L140.68,26.51 L142.02,26.25 L142.05,26.24 L143.43,25.98 L144.81,25.72 L146.19,25.47 L147.45,25.25 L147.57,25.23 L148.95,24.99 L150.33,24.76 L151.71,24.53 L153.09,24.31 L153.50,24.25 L154.47,24.10 L155.85,23.89 L157.23,23.69 L158.60,23.50 L159.98,23.31 L160.41,23.25 L161.36,23.12 L162.74,22.95 L164.12,22.78 L165.50,22.61 L166.88,22.45 L168.26,22.29 L168.65,22.25 L169.64,22.14 L171.02,22.00 L172.40,21.86 L173.78,21.73 L175.15,21.61 L176.53,21.48 L177.91,21.37 L179.29,21.26 L179.39,21.25 L180.67,21.15 L182.05,21.05 L183.43,20.96 L184.81,20.87 L186.19,20.79 L187.57,20.71 L188.95,20.64 L190.33,20.57 L191.70,20.51 L193.08,20.46 L194.46,20.41 L195.84,20.36 L197.22,20.32 L198.60,20.28 L199.98,20.25 L200.25,20.25 L201.36,20.23 L202.74,20.21 L204.12,20.20 L205.50,20.19 L206.88,20.19 L208.25,20.19 L209.63,20.20 L211.01,20.21 L212.39,20.23 L213.70,20.25 L213.77,20.25 L215.15,20.28 L216.53,20.31 L217.91,20.35 L219.29,20.40 L220.67,20.45 L222.05,20.50 L223.43,20.57 L224.80,20.63 L226.18,20.70 L227.56,20.78 L228.94,20.86 L230.32,20.95 L231.70,21.04 L233.08,21.14 L234.46,21.24 L234.55,21.25 L235.84,21.35 L237.22,21.47 L238.60,21.59 L239.98,21.71 L241.35,21.85 L242.73,21.98 L244.11,22.12 L245.28,22.25 L245.49,22.27 L246.87,22.43 L248.25,22.59 L249.63,22.75 L251.01,22.92 L252.39,23.10 L253.53,23.25 L253.77,23.28 L255.15,23.47 L256.53,23.67 L257.90,23.87 L259.28,24.07 L260.44,24.25 L260.66,24.28 L262.04,24.50 L263.42,24.73 L264.80,24.96 L266.18,25.20 L266.49,25.25 L267.56,25.44 L268.94,25.69 L270.32,25.95 L271.70,26.21 L271.91,26.25 L273.08,26.48 L274.45,26.75 L275.83,27.04 L276.86,27.25 L277.21,27.32 L278.59,27.62 L279.97,27.92 L281.35,28.23 L281.43,28.25 L282.73,28.55 L284.11,28.87 L285.49,29.20 L285.69,29.25 L286.87,29.54 L288.25,29.89 L289.63,30.24 L289.67,30.25 L291.00,30.60 L292.38,30.97 L293.43,31.25 L293.76,31.34 L295.14,31.73 L296.52,32.12 L296.98,32.25 L297.90,32.52 L299.28,32.92 L300.36,33.25 L300.66,33.34 L302.04,33.77 L303.42,34.20 L303.58,34.25 L304.80,34.64 L306.18,35.09 L306.65,35.25 L307.55,35.55 L308.93,36.02 L309.60,36.25 L310.31,36.50 L311.69,36.99 L312.42,37.25 L313.07,37.49 L314.45,37.99 L315.13,38.25 L315.83,38.51 L317.21,39.04 L317.74,39.25 L318.59,39.58 L319.97,40.13 L320.26,40.25 L321.35,40.69 L322.69,41.25 L322.73,41.27 L324.10,41.85 L325.03,42.25 L325.48,42.45 L326.86,43.06 L327.29,43.25 L328.24,43.68 L329.48,44.25 L329.62,44.32 L331.00,44.97 L331.60,45.25 L332.38,45.63 L333.65,46.25 L333.76,46.30 L335.14,47.00 L335.64,47.25 L336.52,47.70 L337.56,48.25 L337.90,48.43 L339.28,49.17 L339.43,49.25 L340.65,49.92 L341.24,50.25 L342.03,50.70 L343.00,51.25 L343.41,51.49 L344.71,52.25 L344.79,52.30 L346.17,53.13 L346.37,53.25 L347.55,53.98 L347.98,54.25 L348.93,54.86 L349.54,55.25 L350.31,55.75 L351.06,56.25 L351.69,56.67 L352.54,57.25 L353.07,57.62 L353.97,58.25 L354.45,58.59 L355.36,59.25 L355.83,59.59 L356.72,60.25 L357.20,60.62 L358.03,61.25 L358.58,61.68 L359.31,62.25 L359.96,62.78 L360.55,63.25 L361.34,63.91 L361.75,64.25 L362.72,65.08 L362.92,65.25 L364.06,66.25 L364.10,66.29 L365.16,67.25 L365.48,67.55 L366.23,68.25 L366.86,68.85 L367.27,69.25 L368.24,70.21 L368.28,70.25 L369.25,71.25 L369.62,71.64 L370.19,72.25 L371.00,73.13 L371.11,73.25 L371.99,74.25 L372.38,74.69 L372.85,75.25 L373.68,76.25 L373.75,76.34 L374.48,77.25 L375.13,78.09 L375.25,78.25 L376.00,79.25 L376.51,79.96 L376.72,80.25 L377.41,81.25 L377.89,81.97 L378.08,82.25 L378.71,83.25 L379.27,84.15 L379.33,84.25 L379.92,85.25 L380.48,86.25 L380.65,86.56 L381.02,87.25 L381.54,88.25 L382.03,89.25 L382.03,89.25 L382.49,90.25 L382.94,91.25 L383.36,92.25 L383.41,92.38 L383.75,93.25 L384.12,94.25 L384.47,95.25 L384.79,96.22 L384.80,96.25 L385.10,97.25 L385.38,98.25 L385.63,99.25 L385.87,100.25 L386.08,101.25 L386.17,101.72 L386.27,102.25 L386.43,103.25 L386.57,104.25 L386.70,105.25 L386.79,106.25 L386.87,107.25 L386.92,108.25 L386.96,109.25 L386.97,110.25 L386.95,111.25 L386.92,112.25 L386.86,113.25 L386.78,114.25 L386.68,115.25 L386.56,116.25 L386.41,117.25 L386.24,118.25 L386.17,118.65 L386.05,119.25 L385.84,120.25 L385.60,121.25 L385.34,122.25 L385.06,123.25 L384.79,124.15 L384.76,124.25 L384.43,125.25 L384.08,126.25 L383.70,127.25 L383.41,127.99 L383.30,128.25 L382.88,129.25 L382.44,130.25 L382.03,131.12 L381.97,131.25 L381.47,132.25 L380.96,133.25 L380.65,133.82 L380.41,134.25 L379.85,135.25 L379.27,136.22 L379.25,136.25 L378.64,137.25 L377.99,138.25 L377.89,138.40 L377.32,139.25 L376.63,140.25 L376.51,140.41 L375.90,141.25 L375.16,142.25 L375.13,142.28 L374.38,143.25 L373.75,144.03 L373.58,144.25 L372.74,145.25 L372.38,145.68 L371.88,146.25 L371.00,147.25 L371.00,147.25 L370.08,148.25 L369.62,148.74 L369.13,149.25 L368.24,150.16 L368.15,150.25 L367.14,151.25 L366.86,151.52 L366.10,152.25 L365.48,152.83 L365.02,153.25 L364.10,154.09 L363.92,154.25 L362.78,155.25 L362.72,155.30 L361.60,156.25 L361.34,156.47 L360.39,157.25 L359.96,157.60 L359.15,158.25 L358.58,158.69 L357.87,159.25 L357.20,159.75 L356.55,160.25 L355.83,160.78 L355.19,161.25 L354.45,161.78 L353.79,162.25 L353.07,162.76 L352.35,163.25 L351.69,163.70 L350.87,164.25 L350.31,164.62 L349.35,165.25 L348.93,165.52 L347.78,166.25 L347.55,166.39 L346.17,167.24 L346.16,167.25 L344.79,168.07 L344.50,168.25 L343.41,168.88 L342.78,169.25 L342.03,169.68 L341.02,170.25 L340.65,170.45 L339.28,171.21 L339.20,171.25 L337.90,171.95 L337.32,172.25 L336.52,172.67 L335.39,173.25 L335.14,173.38 L333.76,174.07 L333.39,174.25 L332.38,174.74 L331.33,175.25 L331.00,175.41 L329.62,176.06 L329.21,176.25 L328.24,176.69 L327.01,177.25 L326.86,177.32 L325.48,177.92 L324.73,178.25 L324.10,178.52 L322.73,179.11 L322.38,179.25 L321.35,179.68 L319.97,180.24 L319.95,180.25 L318.59,180.79 L317.42,181.25 L317.21,181.33 L315.83,181.86 L314.80,182.25 L314.45,182.38 L313.07,182.89 L312.07,183.25 L311.69,183.39 L310.31,183.87 L309.23,184.25 L308.93,184.35 L307.55,184.82 L306.28,185.25 L306.18,185.28 L304.80,185.73 L303.42,186.18 L303.18,186.25 L302.04,186.61 L300.66,187.03 L299.94,187.25 L299.28,187.45 L297.90,187.86 L296.55,188.25 L296.52,188.26 L295.14,188.65 L293.76,189.03 L292.97,189.25 L292.38,189.41 L291.00,189.77 L289.63,190.14 L289.18,190.25 L288.25,190.49 L286.87,190.83 L285.49,191.17 L285.16,191.25 L284.11,191.50 L282.73,191.83 L281.35,192.14 L280.87,192.25 L279.97,192.45 L278.59,192.75 L277.21,193.05 L276.26,193.25 L275.83,193.34 L274.45,193.62 L273.08,193.90 L271.70,194.17 L271.26,194.25 L270.32,194.43 L268.94,194.68 L267.56,194.93 L266.18,195.18 L265.76,195.25 L264.80,195.41 L263.42,195.64 L262.04,195.87 L260.66,196.09 L259.62,196.25 L259.28,196.30 L257.90,196.51 L256.53,196.71 L255.15,196.90 L253.77,197.09 L252.57,197.25 L252.39,197.27 L251.01,197.45 L249.63,197.62 L248.25,197.79 L246.87,197.95 L245.49,198.10 L244.11,198.25 L244.11,198.25 L242.73,198.39 L241.35,198.53 L239.98,198.66 L238.60,198.79 L237.22,198.91 L235.84,199.02 L234.46,199.13 L233.08,199.23 L232.87,199.25 L231.70,199.33 L230.32,199.43 L228.94,199.51 L227.56,199.59 L226.18,199.67 L224.80,199.74 L223.43,199.81 L222.05,199.87 L220.67,199.92 L219.29,199.97 L217.91,200.02 L216.53,200.06 L215.15,200.09 L213.77,200.12 L212.39,200.15 L211.01,200.16 L209.63,200.18 L208.25,200.18 L206.88,200.19 L205.50,200.18 L204.12,200.18 L202.74,200.16 L201.36,200.14 L199.98,200.12 L198.60,200.09 L197.22,200.05 L195.84,200.01 L194.46,199.97 L193.08,199.92 L191.70,199.86 L190.33,199.80 L188.95,199.73 L187.57,199.66 L186.19,199.58 L184.81,199.50 L183.43,199.41 L182.05,199.32 L181.07,199.25 L180.67,199.22 L179.29,199.12 L177.91,199.01 L176.53,198.89 L175.15,198.77 L173.78,198.64 L172.40,198.51 L171.02,198.37 L169.83,198.25 L169.64,198.23 L168.26,198.08 L166.88,197.93 L165.50,197.76 L164.12,197.60 L162.74,197.43 L161.36,197.25 L161.36,197.25 L159.98,197.07 L158.60,196.88 L157.23,196.68 L155.85,196.48 L154.47,196.27 L154.31,196.25 L153.09,196.06 L151.71,195.84 L150.33,195.61 L148.95,195.38 L148.17,195.25 L147.57,195.15 L146.19,194.90 L144.81,194.65 L143.43,194.39 L142.68,194.25 L142.05,194.13 L140.68,193.86 L139.30,193.58 L137.92,193.30 L137.67,193.25 L136.54,193.01 L135.16,192.71 L133.78,192.41 L133.06,192.25 L132.40,192.10 L131.02,191.78 L129.64,191.46 L128.77,191.25 L128.26,191.13 L126.88,190.79 L125.50,190.44 L124.75,190.25 L124.13,190.09 L122.75,189.73 L121.37,189.36 L120.97,189.25 L119.99,188.98 L118.61,188.60 L117.39,188.25 L117.23,188.20 L115.85,187.80 L114.47,187.39 L113.99,187.25 L113.09,186.98 L111.71,186.55 L110.75,186.25 L110.33,186.12 L108.95,185.67 L107.66,185.25 L107.58,185.22 L106.20,184.76 L104.82,184.29 L104.70,184.25 L103.44,183.81 L102.06,183.32 L101.86,183.25 L100.68,182.82 L99.30,182.31 L99.14,182.25 L97.92,181.79 L96.54,181.26 L96.51,181.25 L95.16,180.72 L93.99,180.25 L93.78,180.17 L92.40,179.60 L91.55,179.25 L91.03,179.03 L89.65,178.44 L89.20,178.25 L88.27,177.84 L86.93,177.25 L86.89,177.23 L85.51,176.61 L84.73,176.25 L84.13,175.97 L82.75,175.32 L82.60,175.25 L81.37,174.65 L80.54,174.25 L79.99,173.98 L78.61,173.28 L78.55,173.25 L77.23,172.57 L76.61,172.25 L75.85,171.85 L74.74,171.25 L74.48,171.11 L73.10,170.35 L72.92,170.25 L71.72,169.57 L71.15,169.25 L70.34,168.78 L69.44,168.25 L68.96,167.96 L67.77,167.25 L67.58,167.13 L66.20,166.28 L66.16,166.25 L64.82,165.40 L64.59,165.25 L63.44,164.50 L63.06,164.25 L62.06,163.58 L61.58,163.25 L60.68,162.63 L60.14,162.25 L59.30,161.65 L58.75,161.25 L57.93,160.65 L57.39,160.25 L56.55,159.61 L56.07,159.25 L55.17,158.55 L54.79,158.25 L53.79,157.45 L53.54,157.25 L52.41,156.32 L52.33,156.25 L51.16,155.25 L51.03,155.14 L50.02,154.25 L49.65,153.92 L48.91,153.25 L48.27,152.66 L47.84,152.25 L46.89,151.34 L46.80,151.25 L45.79,150.25 L45.51,149.97 L44.81,149.25 L44.13,148.54 L43.86,148.25 L42.94,147.25 L42.75,147.04 L42.05,146.25 L41.38,145.47 L41.19,145.25 L40.36,144.25 L40.00,143.80 L39.56,143.25 L38.78,142.25 L38.62,142.04 L38.03,141.25 L37.31,140.25 L37.24,140.15 L36.61,139.25 L35.94,138.25 L35.86,138.12 L35.30,137.25 L34.68,136.25 L34.48,135.91 L34.09,135.25 L33.52,134.25 L33.10,133.48 L32.98,133.25 L32.46,132.25 L31.97,131.25 L31.72,130.73 L31.50,130.25 L31.05,129.25 L30.63,128.25 L30.34,127.53 L30.23,127.25 L29.86,126.25 L29.51,125.25 L29.18,124.25 L28.96,123.54 L28.87,123.25 L28.59,122.25 L28.33,121.25 L28.10,120.25 L27.88,119.25 L27.69,118.25 L27.58,117.61" style="stroke-width: 2px; stroke: rgb(0, 0, 0); stroke-opacity: 1;"/><g><circle cx="206.9674875" cy="20.18689999999998" r="2" style="stroke-width: 3px; stroke: rgb(0, 0, 0); stroke-opacity: 0.8; fill: rgb(9, 9, 9); fill-opacity: 0.15;"/></g><g><circle cx="206.9674875" cy="200.18689999999998" r="2" style="stroke-width: 3px; stroke: rgb(0, 0, 0); stroke-opacity: 0.8; fill: rgb(0, 0, 0); fill-opacity: 0.15;"/></g><g><circle cx="386.96748749999995" cy="110.1869" r="2" style="stroke-width: 3px; stroke: rgb(0, 0, 0); stroke-opacity: 1; fill: rgb(0, 0, 0); fill-opacity: 1;"/></g><g><circle cx="26.967487500000015" cy="110.1869" r="2" style="stroke-width: 3px; stroke: rgb(0, 0, 0); stroke-opacity: 1; fill: rgb(0, 0, 0); fill-opacity: 1;"/></g><g><circle cx="362.8474875" cy="110.1869" r="2" style="stroke-width: 3px; stroke: rgb(0, 0, 0); stroke-opacity: 1; fill: rgb(0, 0, 0); fill-opacity: 1;"/></g><g><circle cx="51.087487500000016" cy="110.1869" r="2" style="stroke-width: 3px; stroke: rgb(0, 0, 0); stroke-opacity: 1; fill: rgb(0, 0, 0); fill-opacity: 1;"/></g></g></g><rect class="real" x="1" y="1" width="411.7500000000001" height="218.24999999999997" style="fill: transparent; stroke: none;"/></g></g></g><g/></g><g/><g/><g/></svg>
        <svg xmlns="http://www.w3.org/2000/svg" xmlns:xlink="http://www.w3.org/1999/xlink" width="700" height="300" style="width:700px;height:300px;font-family:Asana-Math, Asana;background:transparent;"><g><g><g><g transform="matrix(1,0,0,1,350.1777750651042,41.844441731770836)"><path transform="matrix(0.017,0,0,-0.017,0,0)" d="M146 266C146 526 243 632 301 700L282 726C225 675 60 542 60 266C60 159 85 58 133 -32C168 -99 200 -138 282 -215L301 -194C255 -137 146 -15 146 266Z" stroke="rgb(0,0,0)" stroke-opacity="1" stroke-width="8" fill="rgb(0,0,0)" fill-opacity="1"></path></g></g><g><g transform="matrix(1,0,0,1,355.8222249348958,42.04443359375)"><path transform="matrix(0.017,0,0,-0.017,0,0)" d="M263 689C108 689 29 566 29 324C29 207 50 106 85 57C120 8 176 -20 238 -20C389 -20 465 110 465 366C465 585 400 689 263 689ZM245 654C342 654 381 556 381 316C381 103 343 15 251 15C154 15 113 116 113 360C113 571 150 654 245 654Z" stroke="rgb(0,0,0)" stroke-opacity="1" stroke-width="8" fill="rgb(0,0,0)" fill-opacity="1"></path></g></g><g><g transform="matrix(1,0,0,1,364.2888997395833,42.04443359375)"><path transform="matrix(0.017,0,0,-0.017,0,0)" d="M204 123C177 114 159 108 106 93C99 17 74 -48 16 -144L30 -155L71 -136C152 -31 190 32 218 109Z" stroke="rgb(0,0,0)" stroke-opacity="1" stroke-width="8" fill="rgb(0,0,0)" fill-opacity="1"></path></g></g><g><g transform="matrix(1,0,0,1,371.933349609375,42.04443359375)"><path transform="matrix(0.017,0,0,-0.017,0,0)" d="M484 722L472 733C420 707 384 698 312 691L308 670L356 670C380 670 390 663 390 646C390 639 389 628 388 622L287 71C286 68 286 64 286 61C286 22 334 -11 389 -11C426 -11 477 8 520 39C616 107 682 244 682 376C682 414 673 453 661 468C654 477 641 482 626 482C602 482 572 474 544 460C493 433 460 403 398 324ZM571 424C597 424 610 401 610 352C610 288 589 202 559 137C526 68 486 36 432 36C386 36 361 59 361 101C361 135 376 276 457 361C490 395 542 424 571 424Z" stroke="rgb(0,0,0)" stroke-opacity="1" stroke-width="8" fill="rgb(0,0,0)" fill-opacity="1"></path></g></g><g><g transform="matrix(1,0,0,1,384.022216796875,41.844441731770836)"><path transform="matrix(0.017,0,0,-0.017,0,0)" d="M51 726L32 700C87 636 187 526 187 266C187 -10 83 -131 32 -194L51 -215C104 -165 273 -23 273 265C273 542 108 675 51 726Z" stroke="rgb(0,0,0)" stroke-opacity="1" stroke-width="8" fill="rgb(0,0,0)" fill-opacity="1"></path></g></g></g></g><g><g><g><g transform="matrix(1,0,0,1,350.1777750651042,222.84444173177084)"><path transform="matrix(0.017,0,0,-0.017,0,0)" d="M146 266C146 526 243 632 301 700L282 726C225 675 60 542 60 266C60 159 85 58 133 -32C168 -99 200 -138 282 -215L301 -194C255 -137 146 -15 146 266Z" stroke="rgb(0,0,0)" stroke-opacity="1" stroke-width="8" fill="rgb(0,0,0)" fill-opacity="1"></path></g></g><g><g transform="matrix(1,0,0,1,355.8222249348958,223.04443359375)"><path transform="matrix(0.017,0,0,-0.017,0,0)" d="M263 689C108 689 29 566 29 324C29 207 50 106 85 57C120 8 176 -20 238 -20C389 -20 465 110 465 366C465 585 400 689 263 689ZM245 654C342 654 381 556 381 316C381 103 343 15 251 15C154 15 113 116 113 360C113 571 150 654 245 654Z" stroke="rgb(0,0,0)" stroke-opacity="1" stroke-width="8" fill="rgb(0,0,0)" fill-opacity="1"></path></g></g><g><g transform="matrix(1,0,0,1,364.2888997395833,223.04443359375)"><path transform="matrix(0.017,0,0,-0.017,0,0)" d="M204 123C177 114 159 108 106 93C99 17 74 -48 16 -144L30 -155L71 -136C152 -31 190 32 218 109Z" stroke="rgb(0,0,0)" stroke-opacity="1" stroke-width="8" fill="rgb(0,0,0)" fill-opacity="1"></path></g></g><g><g transform="matrix(1,0,0,1,371.933349609375,223.04443359375)"><path transform="matrix(0.017,0,0,-0.017,0,0)" d="" stroke="rgb(0,0,0)" stroke-opacity="1" stroke-width="8" fill="rgb(0,0,0)" fill-opacity="1"></path></g></g><g><g transform="matrix(1,0,0,1,376.177734375,223.04443359375)"><path transform="matrix(0.017,0,0,-0.017,0,0)" d="M555 243L555 299L51 299L51 243Z" stroke="rgb(0,0,0)" stroke-opacity="1" stroke-width="8" fill="rgb(0,0,0)" fill-opacity="1"></path></g></g><g><g transform="matrix(1,0,0,1,386.4444173177083,223.04443359375)"><path transform="matrix(0.017,0,0,-0.017,0,0)" d="M235 722L223 733C171 707 135 698 63 691L59 670L107 670C131 670 141 663 141 646C141 639 140 628 139 622L38 71C37 68 37 64 37 61C37 22 85 -11 140 -11C177 -11 228 8 271 39C367 107 433 244 433 376C433 414 424 453 412 468C405 477 392 482 377 482C353 482 323 474 295 460C244 433 211 403 149 324ZM322 424C348 424 361 401 361 352C361 288 340 202 310 137C277 68 237 36 183 36C137 36 112 59 112 101C112 135 127 276 208 361C241 395 293 424 322 424Z" stroke="rgb(0,0,0)" stroke-opacity="1" stroke-width="8" fill="rgb(0,0,0)" fill-opacity="1"></path></g></g><g><g transform="matrix(1,0,0,1,394.2888997395833,222.84444173177084)"><path transform="matrix(0.017,0,0,-0.017,0,0)" d="M51 726L32 700C87 636 187 526 187 266C187 -10 83 -131 32 -194L51 -215C104 -165 273 -23 273 265C273 542 108 675 51 726Z" stroke="rgb(0,0,0)" stroke-opacity="1" stroke-width="8" fill="rgb(0,0,0)" fill-opacity="1"></path></g></g></g></g><g><g><g><g transform="matrix(1,0,0,1,466.6666666666667,132.71110026041666)"><path transform="matrix(0.017,0,0,-0.017,0,0)" d="M286 646L392 650C454 650 494 641 495 626L503 537L527 537C530 600 537 651 548 689C526 691 498 692 481 692L440 691L275 689L246 689C221 689 181 690 143 691L94 692L91 664L147 662C171 661 182 652 182 635C182 621 178 589 173 559L98 125C81 33 81 32 40 28L4 25L0 -3L34 -2C74 -1 106 0 127 0C145 0 174 -1 213 -2L265 -3L268 25L204 28C177 29 168 37 168 57C168 63 169 74 170 78L206 301L323 301C350 301 381 300 429 298L455 297L474 342L470 349C389 345 329 343 251 343L214 343L260 614C263 630 264 635 269 646Z" stroke="rgb(0,0,0)" stroke-opacity="1" stroke-width="8" fill="rgb(0,0,0)" fill-opacity="1"></path></g></g><g><g><g><g><g transform="matrix(1,0,0,1,476.6222330729167,135.50001627604166)"><path transform="matrix(0.0119,0,0,-0.0119,0,0)" d="M418 -3L418 27L366 30C311 33 301 44 301 96L301 700L60 598L67 548L217 614L217 96C217 44 206 33 152 30L96 27L96 -3C250 0 250 0 261 0C292 0 402 -3 418 -3Z" stroke="rgb(0,0,0)" stroke-opacity="1" stroke-width="8" fill="rgb(0,0,0)" fill-opacity="1"></path></g></g></g></g></g><g><g transform="matrix(1,0,0,1,483.5777994791667,132.5111083984375)"><path transform="matrix(0.017,0,0,-0.017,0,0)" d="M146 266C146 526 243 632 301 700L282 726C225 675 60 542 60 266C60 159 85 58 133 -32C168 -99 200 -138 282 -215L301 -194C255 -137 146 -15 146 266Z" stroke="rgb(0,0,0)" stroke-opacity="1" stroke-width="8" fill="rgb(0,0,0)" fill-opacity="1"></path></g></g><g><g transform="matrix(1,0,0,1,489.2222493489583,132.71110026041666)"><path transform="matrix(0.017,0,0,-0.017,0,0)" d="M342 330L365 330C373 395 380 432 389 458C365 473 330 482 293 482C248 483 175 463 118 400C64 352 25 241 25 136C25 40 67 -11 147 -11C201 -11 249 9 304 54L354 95L346 115L331 105C259 57 221 40 186 40C130 40 101 80 101 159C101 267 136 371 185 409C206 425 230 433 261 433C306 433 342 414 342 390Z" stroke="rgb(0,0,0)" stroke-opacity="1" stroke-width="8" fill="rgb(0,0,0)" fill-opacity="1"></path></g></g><g><g transform="matrix(1,0,0,1,496.111083984375,132.71110026041666)"><path transform="matrix(0.017,0,0,-0.017,0,0)" d="M204 123C177 114 159 108 106 93C99 17 74 -48 16 -144L30 -155L71 -136C152 -31 190 32 218 109Z" stroke="rgb(0,0,0)" stroke-opacity="1" stroke-width="8" fill="rgb(0,0,0)" fill-opacity="1"></path></g></g><g><g transform="matrix(1,0,0,1,503.75553385416663,132.71110026041666)"><path transform="matrix(0.017,0,0,-0.017,0,0)" d="M512 689C357 689 278 566 278 324C278 207 299 106 334 57C369 8 425 -20 487 -20C638 -20 714 110 714 366C714 585 649 689 512 689ZM494 654C591 654 630 556 630 316C630 103 592 15 500 15C403 15 362 116 362 360C362 571 399 654 494 654Z" stroke="rgb(0,0,0)" stroke-opacity="1" stroke-width="8" fill="rgb(0,0,0)" fill-opacity="1"></path></g></g><g><g transform="matrix(1,0,0,1,516.4666341145834,132.5111083984375)"><path transform="matrix(0.017,0,0,-0.017,0,0)" d="M51 726L32 700C87 636 187 526 187 266C187 -10 83 -131 32 -194L51 -215C104 -165 273 -23 273 265C273 542 108 675 51 726Z" stroke="rgb(0,0,0)" stroke-opacity="1" stroke-width="8" fill="rgb(0,0,0)" fill-opacity="1"></path></g></g></g></g><g><g><g><g transform="matrix(1,0,0,1,198.17777506510416,134.71110026041666)"><path transform="matrix(0.017,0,0,-0.017,0,0)" d="M286 646L392 650C454 650 494 641 495 626L503 537L527 537C530 600 537 651 548 689C526 691 498 692 481 692L440 691L275 689L246 689C221 689 181 690 143 691L94 692L91 664L147 662C171 661 182 652 182 635C182 621 178 589 173 559L98 125C81 33 81 32 40 28L4 25L0 -3L34 -2C74 -1 106 0 127 0C145 0 174 -1 213 -2L265 -3L268 25L204 28C177 29 168 37 168 57C168 63 169 74 170 78L206 301L323 301C350 301 381 300 429 298L455 297L474 342L470 349C389 345 329 343 251 343L214 343L260 614C263 630 264 635 269 646Z" stroke="rgb(0,0,0)" stroke-opacity="1" stroke-width="8" fill="rgb(0,0,0)" fill-opacity="1"></path></g></g><g><g><g><g><g transform="matrix(1,0,0,1,208.111083984375,137.50001627604166)"><path transform="matrix(0.0119,0,0,-0.0119,0,0)" d="M16 23L16 -3C203 -3 203 0 239 0C275 0 275 -3 468 -3L468 82C353 77 307 81 122 77L304 270C401 373 431 428 431 503C431 618 353 689 226 689C154 689 105 669 56 619L39 483L68 483L81 529C97 587 133 612 200 612C286 612 341 558 341 473C341 398 299 324 186 204Z" stroke="rgb(0,0,0)" stroke-opacity="1" stroke-width="8" fill="rgb(0,0,0)" fill-opacity="1"></path></g></g></g></g></g><g><g transform="matrix(1,0,0,1,215.066650390625,134.5111083984375)"><path transform="matrix(0.017,0,0,-0.017,0,0)" d="M146 266C146 526 243 632 301 700L282 726C225 675 60 542 60 266C60 159 85 58 133 -32C168 -99 200 -138 282 -215L301 -194C255 -137 146 -15 146 266Z" stroke="rgb(0,0,0)" stroke-opacity="1" stroke-width="8" fill="rgb(0,0,0)" fill-opacity="1"></path></g></g><g><g transform="matrix(1,0,0,1,220.71110026041666,134.71110026041666)"><path transform="matrix(0.017,0,0,-0.017,0,0)" d="M555 243L555 299L51 299L51 243Z" stroke="rgb(0,0,0)" stroke-opacity="1" stroke-width="8" fill="rgb(0,0,0)" fill-opacity="1"></path></g></g><g><g transform="matrix(1,0,0,1,231,134.71110026041666)"><path transform="matrix(0.017,0,0,-0.017,0,0)" d="M342 330L365 330C373 395 380 432 389 458C365 473 330 482 293 482C248 483 175 463 118 400C64 352 25 241 25 136C25 40 67 -11 147 -11C201 -11 249 9 304 54L354 95L346 115L331 105C259 57 221 40 186 40C130 40 101 80 101 159C101 267 136 371 185 409C206 425 230 433 261 433C306 433 342 414 342 390Z" stroke="rgb(0,0,0)" stroke-opacity="1" stroke-width="8" fill="rgb(0,0,0)" fill-opacity="1"></path></g></g><g><g transform="matrix(1,0,0,1,237.9111328125,134.71110026041666)"><path transform="matrix(0.017,0,0,-0.017,0,0)" d="M204 123C177 114 159 108 106 93C99 17 74 -48 16 -144L30 -155L71 -136C152 -31 190 32 218 109Z" stroke="rgb(0,0,0)" stroke-opacity="1" stroke-width="8" fill="rgb(0,0,0)" fill-opacity="1"></path></g></g><g><g transform="matrix(1,0,0,1,245.5333251953125,134.71110026041666)"><path transform="matrix(0.017,0,0,-0.017,0,0)" d="M512 689C357 689 278 566 278 324C278 207 299 106 334 57C369 8 425 -20 487 -20C638 -20 714 110 714 366C714 585 649 689 512 689ZM494 654C591 654 630 556 630 316C630 103 592 15 500 15C403 15 362 116 362 360C362 571 399 654 494 654Z" stroke="rgb(0,0,0)" stroke-opacity="1" stroke-width="8" fill="rgb(0,0,0)" fill-opacity="1"></path></g></g><g><g transform="matrix(1,0,0,1,258.2444661458333,134.5111083984375)"><path transform="matrix(0.017,0,0,-0.017,0,0)" d="M51 726L32 700C87 636 187 526 187 266C187 -10 83 -131 32 -194L51 -215C104 -165 273 -23 273 265C273 542 108 675 51 726Z" stroke="rgb(0,0,0)" stroke-opacity="1" stroke-width="8" fill="rgb(0,0,0)" fill-opacity="1"></path></g></g></g></g><g><g><g><g transform="matrix(1,0,0,1,532.177734375,134.5111083984375)"><path transform="matrix(0.017,0,0,-0.017,0,0)" d="M146 266C146 526 243 632 301 700L282 726C225 675 60 542 60 266C60 159 85 58 133 -32C168 -99 200 -138 282 -215L301 -194C255 -137 146 -15 146 266Z" stroke="rgb(0,0,0)" stroke-opacity="1" stroke-width="8" fill="rgb(0,0,0)" fill-opacity="1"></path></g></g><g><g transform="matrix(1,0,0,1,537.822265625,134.71110026041666)"><path transform="matrix(0.017,0,0,-0.017,0,0)" d="M271 204L242 77C238 60 236 42 236 26C236 4 245 -9 260 -9C283 -9 324 17 406 85L399 106C375 86 346 59 324 59C315 59 309 68 309 82C309 87 309 90 310 93L402 472L392 481L359 463C318 478 301 482 274 482C246 482 226 477 199 464C137 433 104 403 79 354C35 265 4 145 4 67C4 23 19 -11 38 -11C75 -11 155 41 271 204ZM319 414C297 305 278 253 244 201C187 117 126 59 94 59C82 59 76 72 76 99C76 163 104 280 139 360C163 415 186 433 234 433C257 433 275 429 319 414Z" stroke="rgb(0,0,0)" stroke-opacity="1" stroke-width="8" fill="rgb(0,0,0)" fill-opacity="1"></path></g></g><g><g transform="matrix(1,0,0,1,545.3555501302084,134.71110026041666)"><path transform="matrix(0.017,0,0,-0.017,0,0)" d="M204 123C177 114 159 108 106 93C99 17 74 -48 16 -144L30 -155L71 -136C152 -31 190 32 218 109Z" stroke="rgb(0,0,0)" stroke-opacity="1" stroke-width="8" fill="rgb(0,0,0)" fill-opacity="1"></path></g></g><g><g transform="matrix(1,0,0,1,552.977783203125,134.71110026041666)"><path transform="matrix(0.017,0,0,-0.017,0,0)" d="M512 689C357 689 278 566 278 324C278 207 299 106 334 57C369 8 425 -20 487 -20C638 -20 714 110 714 366C714 585 649 689 512 689ZM494 654C591 654 630 556 630 316C630 103 592 15 500 15C403 15 362 116 362 360C362 571 399 654 494 654Z" stroke="rgb(0,0,0)" stroke-opacity="1" stroke-width="8" fill="rgb(0,0,0)" fill-opacity="1"></path></g></g><g><g transform="matrix(1,0,0,1,565.7111002604166,134.5111083984375)"><path transform="matrix(0.017,0,0,-0.017,0,0)" d="M51 726L32 700C87 636 187 526 187 266C187 -10 83 -131 32 -194L51 -215C104 -165 273 -23 273 265C273 542 108 675 51 726Z" stroke="rgb(0,0,0)" stroke-opacity="1" stroke-width="8" fill="rgb(0,0,0)" fill-opacity="1"></path></g></g></g></g><g><g><g><g transform="matrix(1,0,0,1,115.66666666666666,135)"><path transform="matrix(0.017,0,0,-0.017,0,0)" d="M146 266C146 526 243 632 301 700L282 726C225 675 60 542 60 266C60 159 85 58 133 -32C168 -99 200 -138 282 -215L301 -194C255 -137 146 -15 146 266Z" stroke="rgb(0,0,0)" stroke-opacity="1" stroke-width="8" fill="rgb(0,0,0)" fill-opacity="1"></path></g></g><g><g transform="matrix(1,0,0,1,121.31111653645834,135.19999186197916)"><path transform="matrix(0.017,0,0,-0.017,0,0)" d="M555 243L555 299L51 299L51 243Z" stroke="rgb(0,0,0)" stroke-opacity="1" stroke-width="8" fill="rgb(0,0,0)" fill-opacity="1"></path></g></g><g><g transform="matrix(1,0,0,1,131.60001627604166,135.19999186197916)"><path transform="matrix(0.017,0,0,-0.017,0,0)" d="M271 204L242 77C238 60 236 42 236 26C236 4 245 -9 260 -9C283 -9 324 17 406 85L399 106C375 86 346 59 324 59C315 59 309 68 309 82C309 87 309 90 310 93L402 472L392 481L359 463C318 478 301 482 274 482C246 482 226 477 199 464C137 433 104 403 79 354C35 265 4 145 4 67C4 23 19 -11 38 -11C75 -11 155 41 271 204ZM319 414C297 305 278 253 244 201C187 117 126 59 94 59C82 59 76 72 76 99C76 163 104 280 139 360C163 415 186 433 234 433C257 433 275 429 319 414Z" stroke="rgb(0,0,0)" stroke-opacity="1" stroke-width="8" fill="rgb(0,0,0)" fill-opacity="1"></path></g></g><g><g transform="matrix(1,0,0,1,139.13334147135416,135.19999186197916)"><path transform="matrix(0.017,0,0,-0.017,0,0)" d="M204 123C177 114 159 108 106 93C99 17 74 -48 16 -144L30 -155L71 -136C152 -31 190 32 218 109Z" stroke="rgb(0,0,0)" stroke-opacity="1" stroke-width="8" fill="rgb(0,0,0)" fill-opacity="1"></path></g></g><g><g transform="matrix(1,0,0,1,146.77775065104166,135.19999186197916)"><path transform="matrix(0.017,0,0,-0.017,0,0)" d="M512 689C357 689 278 566 278 324C278 207 299 106 334 57C369 8 425 -20 487 -20C638 -20 714 110 714 366C714 585 649 689 512 689ZM494 654C591 654 630 556 630 316C630 103 592 15 500 15C403 15 362 116 362 360C362 571 399 654 494 654Z" stroke="rgb(0,0,0)" stroke-opacity="1" stroke-width="8" fill="rgb(0,0,0)" fill-opacity="1"></path></g></g><g><g transform="matrix(1,0,0,1,159.4888916015625,135)"><path transform="matrix(0.017,0,0,-0.017,0,0)" d="M51 726L32 700C87 636 187 526 187 266C187 -10 83 -131 32 -194L51 -215C104 -165 273 -23 273 265C273 542 108 675 51 726Z" stroke="rgb(0,0,0)" stroke-opacity="1" stroke-width="8" fill="rgb(0,0,0)" fill-opacity="1"></path></g></g></g></g></svg>
</svg>
